<svg width="27" height="27" viewBox="0 0 27 27" fill="none" xmlns="http://www.w3.org/2000/svg">
<path d="M13.5599 19.867C9.93563 19.867 7.0123 16.9701 7.0123 13.3787C7.0123 9.78723 9.93563 6.89037 13.5599 6.89037C17.1841 6.89037 20.1074 9.78723 20.1074 13.3787C20.1074 16.9701 17.1841 19.867 13.5599 19.867ZM13.5599 9.16043C11.2178 9.16043 9.3031 11.0521 9.3031 13.3787C9.3031 15.7052 11.2121 17.5969 13.5599 17.5969C15.9076 17.5969 17.8166 15.7052 17.8166 13.3787C17.8166 11.0521 15.9019 9.16043 13.5599 9.16043ZM21.9025 20.1324C21.9025 19.291 21.2186 18.619 20.3753 18.619C19.5262 18.619 18.8481 19.2966 18.8481 20.1324C18.8481 20.9681 19.5319 21.6457 20.3753 21.6457C21.2186 21.6457 21.9025 20.9681 21.9025 20.1324ZM26.239 18.5964C26.1421 20.6237 25.6749 22.4194 24.1762 23.8989C22.6831 25.3784 20.871 25.8414 18.8253 25.943C16.7168 26.0616 10.3972 26.0616 8.28876 25.943C6.24871 25.847 4.43659 25.384 2.93788 23.9045C1.43918 22.425 0.977602 20.6293 0.87503 18.6021C0.755361 16.5127 0.755361 10.2503 0.87503 8.16092C0.971904 6.13368 1.43918 4.33796 2.93788 2.85847C4.43659 1.37898 6.24301 0.915937 8.28876 0.814293C10.3972 0.695707 16.7168 0.695707 18.8253 0.814293C20.871 0.91029 22.6831 1.37334 24.1762 2.85847C25.6692 4.33796 26.1364 6.13368 26.239 8.16092C26.3587 10.2503 26.3587 16.5071 26.239 18.5964ZM23.5151 5.9191C23.0706 4.81231 22.2102 3.95962 21.0876 3.51352C19.4065 2.85283 15.4176 3.00529 13.5599 3.00529C11.7022 3.00529 7.70752 2.85847 6.03216 3.51352C4.91526 3.95397 4.05479 4.80666 3.60461 5.9191C2.93788 7.58494 3.09174 11.5378 3.09174 13.3787C3.09174 15.2196 2.94358 19.178 3.60461 20.8382C4.04909 21.945 4.90956 22.7977 6.03216 23.2438C7.71322 23.9045 11.7022 23.752 13.5599 23.752C15.4176 23.752 19.4122 23.8989 21.0876 23.2438C22.2045 22.8034 23.0649 21.9507 23.5151 20.8382C24.1819 19.1724 24.028 15.2196 24.028 13.3787C24.028 11.5378 24.1819 7.57929 23.5151 5.9191Z" fill="#DDDDDD"/>
</svg>
