<svg width="90" height="30" viewBox="0 0 90 30" fill="none" xmlns="http://www.w3.org/2000/svg">
<path d="M34.5609 26.1699C31.212 23.9737 26.6671 23.5884 19.3375 25.6585C11.5236 27.5278 8.91835 28.726 5.49689 26.3206C4.18244 25.1389 3.71118 23.2363 4.06308 20.4958C4.87926 16.0282 7.08494 11.7288 11.0029 6.95982C13.1896 4.479 15.2182 2.35 17.8967 1.49508C19.9496 0.958763 19.7577 2.60115 19.5093 2.83604C19.2472 2.83604 18.8069 2.87807 18.4666 3.10414C18.1904 3.3222 17.4322 4.02629 17.3915 4.9734C17.3328 6.42328 18.8067 6.12151 19.4424 5.32545C20.1276 4.42838 21.1404 2.71052 20.3437 1.10948C20.0098 0.539605 19.4329 0.145757 18.7167 0.0116494C16.2639 -0.131048 13.9797 1.0592 11.8715 2.37508C7.261 5.63547 3.57291 10.1532 1.48604 15.0984C0.282963 18.0821 -0.805137 22.3561 0.825776 25.8348C2.08758 28.2485 4.70691 29.5306 7.83205 29.2625C10.0239 29.028 12.6743 28.3069 14.4568 27.8715C16.2395 27.4352 25.3642 24.2423 28.3623 29.7996C28.3623 29.7996 29.3593 27.8294 31.8508 27.7874C33.8992 27.595 36.8544 28.3911 39.0063 30C38.2893 28.9024 36.2566 27.2847 34.5609 26.1699V26.1699Z" fill="#E50C15"/>
<path d="M20.2679 7.52117C18.5612 6.38131 15.1311 8.56047 12.3838 12.2984C9.8714 15.6513 8.78656 19.5482 9.96725 21.3503C11.7234 23.4707 14.9837 20.3864 16.3702 18.7356L16.5491 18.5426C17.4919 17.5117 18.2203 16.2711 18.9254 15.0808C18.9254 15.0808 19.5734 13.9912 19.6043 13.9408C20.0048 13.8657 20.4872 13.7483 21.0308 13.589C21.0231 13.614 18.9511 17.1594 19.1624 18.9192C19.2283 19.4561 19.1781 21.4173 21.059 22.0122C23.5659 22.44 25.5677 20.4617 27.3338 18.7016C27.3338 18.7016 27.6347 18.4085 27.8049 18.2412C27.7618 18.4166 27.7057 18.6508 27.7057 18.6508C26.9717 21.2492 27.9611 21.7944 28.5799 21.9955C30.4502 22.5491 32.6846 19.783 32.6919 19.783C32.6339 20.6543 32.4646 21.375 33.3668 21.9535C34.2183 22.2638 35.0802 21.7906 35.7354 21.3464C38.0951 19.6535 39.9961 17.0036 41.5315 14.7133H40.5521C40.5405 14.7133 38.1353 18.2621 36.5735 19.0335C36.571 19.0335 36.2867 19.182 36.1231 19.0645C35.9202 18.8885 36.0002 18.5223 36.1254 18.2631C36.1333 18.2462 42.1559 7.61279 42.1559 7.61279H39.3123C39.3123 7.61279 39.0017 8.12436 38.9764 8.15792C38.9573 8.1412 38.9117 8.05325 38.8802 8.0111C37.1185 5.53028 33.1289 9.34622 30.1252 13.7714C28.9688 15.473 27.4966 17.3889 25.9699 18.7718C25.9699 18.7718 23.7082 20.8822 22.742 19.3659C22.3887 18.7288 22.4974 17.7974 22.6966 17.1857C23.8217 13.9252 25.7605 10.9663 27.9667 9.18096C28.5894 8.68679 29.2664 8.54387 29.6022 8.75344C29.9224 8.94653 29.974 9.42387 29.7715 9.75083C29.2577 9.73411 28.846 9.89307 28.5114 10.2451C27.8522 10.9492 27.6231 11.6282 27.8327 12.2653C28.8509 13.7404 30.8817 10.8236 30.7835 9.04674C30.7484 8.40964 30.4146 7.80633 29.9162 7.51269C29.1736 7.06032 28.0407 7.17748 27.3076 7.53812C26.326 7.91513 24.7725 9.23089 23.8656 10.2536C22.724 11.5361 20.7659 12.9608 20.1537 12.8013C20.3538 12.2564 22.0077 8.81174 20.2679 7.52117V7.52117ZM33.9772 12.617C34.5304 11.8377 36.1404 9.75061 36.5329 9.39867C37.853 8.21644 38.3806 8.73661 38.4263 9.10515C37.1943 11.3513 35.7402 13.9245 34.3731 16.2379C34.3759 16.2297 33.9453 16.9 33.9453 16.9C33.3415 17.8384 32.7335 18.6432 31.7419 19.2046C31.6004 19.2468 31.3673 19.2637 31.2122 19.1458C31.0255 19.0201 30.9518 18.8105 30.9728 18.5925C31.0323 17.872 31.753 15.6681 33.9772 12.617V12.617ZM18.5079 13.9663C18.5079 13.9663 18.4831 14.042 18.4709 14.0668C18.4678 14.0668 17.231 16.12 17.231 16.12C16.4847 17.1343 15.5529 18.4086 14.3881 19.0202C14.0428 19.1375 13.5655 19.2132 13.3222 18.9032C12.8066 18.2745 13.0724 17.4028 13.2883 16.6989L13.3648 16.4474C13.9837 14.7378 14.9657 13.2288 15.9218 11.8291C15.9337 11.8209 15.9605 11.8125 15.9701 11.8125C15.9725 11.8209 15.9763 11.8209 15.9779 11.8377C16.5778 13.0109 17.7025 13.5554 18.5437 13.8073C18.5488 13.8073 18.5543 13.8156 18.5543 13.8325C18.5544 13.8574 18.5407 13.8912 18.5079 13.9663V13.9663ZM19.6795 11.5444C19.674 11.5611 19.1287 12.8351 19.1287 12.8351C19.0498 12.9021 18.9252 12.8686 18.7823 12.8351L18.5375 12.7929C17.7688 12.55 17.189 12.0303 17.0102 11.4102C16.7637 10.2032 17.7766 9.25609 18.2227 8.91263C18.6509 8.61063 19.3166 8.45144 19.7031 8.76169C19.9415 9.04674 20.0318 9.41539 20.0318 9.81794C20.032 10.3625 19.8668 10.9743 19.6795 11.5444ZM55.6277 15.4331C55.3535 14.8297 54.7027 14.4441 54.009 14.4859C51.7564 14.6956 49.5531 16.5814 48.3961 19.2884C47.7891 20.6799 47.4578 21.828 47.2405 23.6551C47.9411 22.8339 49.3698 21.4846 50.9912 20.747C50.9912 20.747 51.2118 18.9953 52.3368 17.4363C52.7625 16.7907 53.6143 15.7515 54.5709 16.028C55.4068 16.3131 55.1129 18.6684 54.0021 20.9476C53.1802 22.6241 51.9224 24.3009 50.6498 25.4572C49.5247 26.4294 47.8601 27.6028 46.4036 26.6978C45.4863 26.1448 45.0184 24.9878 45.1172 23.496C45.5555 19.2635 47.4482 15.6595 50.1566 11.5526C52.9493 7.73911 56.0278 3.82502 60.1749 1.7377C61.0208 1.30194 61.8041 1.20139 62.4812 1.4696C62.4812 1.4696 58.5883 3.64877 56.7326 7.68035C56.2606 8.70305 55.604 10.0856 56.2652 11.3094C56.6107 11.9463 57.224 11.9967 57.718 11.9631C59.9926 11.4265 61.4622 9.26422 62.6629 7.28639C63.3591 5.78613 63.9778 4.29422 63.9778 2.63466C63.9778 2.43355 63.9676 2.16545 63.9509 1.96412C65.0376 1.37764 67.2661 2.41672 67.2661 2.41672C69.0075 3.00365 72.7154 5.89538 73.9661 6.4483C74.5762 5.7276 75.5788 4.63814 76.1435 4.09323L75.3262 3.58188C74.0178 2.76888 72.6348 1.99767 71.2737 1.23506C68.1823 -0.482918 65.6659 0.120394 64.3853 0.589828C63.882 0.774098 63.4221 0.933401 63.4221 0.933401C62.4717 -0.122625 60.9129 -0.0223024 59.7644 0.262862C55.634 1.46972 51.7993 4.4115 47.6879 9.51595C44.6653 13.514 42.7904 16.9672 41.791 20.3783C41.0207 22.6748 40.7866 26.0524 42.6667 28.0557C44.2652 29.7567 46.3849 29.3882 47.8816 28.7766C51.1246 27.1506 54.0394 23.6469 55.4917 19.6154C55.8423 18.417 56.2312 16.724 55.6277 15.4331V15.4331ZM63.085 2.80243C62.6557 7.81458 58.8286 10.7567 57.8816 10.991C57.3077 11.1082 56.3285 10.8485 57.2027 8.74508C58.49 5.91187 60.6879 3.50664 63.0459 2.27448C63.1034 2.48406 63.1018 2.61782 63.085 2.80243V2.80243ZM85.7873 3.43919C83.7287 4.62955 81.5945 5.40041 79.0113 5.13231C78.2955 5.9539 77.5983 6.80035 76.9558 7.67188C80.5816 8.61063 84.4254 6.52366 86.5692 4.53747C88.8371 2.53422 89.9999 0.0115967 89.9999 0.0115967C89.9999 0.0115967 88.3 1.98943 85.7873 3.43919ZM46.8819 7.61301H44.1814L42.6582 10.1325H45.3581L46.8819 7.61301Z" fill="#E50C15"/>
<path d="M79.0005 26.4033C78.7101 26.6044 78.3022 26.4498 78.4546 25.989C78.8346 24.8155 80.3451 22.4243 80.3451 22.4243L84.5521 14.8284H81.6704C81.5334 15.0574 81.2406 15.5833 81.2406 15.5833C81.1072 15.3572 80.7085 14.8546 80.5444 14.7459C79.8404 14.293 78.8075 14.5071 78.0949 14.9177C74.9968 16.7619 72.7363 20.4055 70.9536 23.2469C70.9536 23.2469 69.0769 26.4055 68.0353 26.6404C67.222 26.7075 67.306 25.5923 67.3412 25.3324C67.6556 23.4547 68.3859 21.6696 69.1215 20.0519C70.618 18.9959 72.3256 17.613 73.8775 16.096C77.2456 12.8186 80.085 9.1056 80.5 8.27587C80.5 8.27587 80.0508 8.36818 79.5203 8.38478C76.9292 12.0642 71.6269 17.4118 70.0194 18.2079C70.7315 16.4641 75.3325 8.14165 79.2477 4.16057L79.8639 3.55691C80.8167 2.6098 81.8037 1.6376 82.573 1.4783C82.6542 1.46994 82.7589 1.4783 82.8492 1.67139C82.8835 2.40881 82.6138 2.95371 82.3045 3.57386L81.8709 4.47917C81.8709 4.47917 82.485 4.36178 82.8885 4.22733C83.3563 3.33095 83.8747 2.32486 83.6836 1.12659C83.6199 0.740992 83.3457 0.447696 82.9873 0.380585C81.8194 0.154286 80.5465 1.03406 79.5222 1.74674L79.4809 1.77171C74.2157 5.97085 69.7698 12.0223 65.8827 20.2865C65.601 20.5041 64.5126 20.7641 64.3276 20.6383C64.7115 19.8339 65.1948 18.7524 65.4365 17.579C65.4784 17.2436 65.5173 16.9002 65.5173 16.565C65.5173 15.8436 65.3472 15.165 64.7125 14.6959C63.9682 14.3186 63.0483 14.4948 62.428 14.7795C59.6496 15.9529 57.5729 18.8531 56.0743 21.2415C55.2684 22.7589 54.4648 24.3841 54.2422 26.2452C54.0855 27.7033 54.4046 28.6421 55.2191 29.1116C56.0565 29.5471 57.1107 29.0944 57.5248 28.8767C60.3396 27.3679 62.3065 24.3424 63.8567 21.5765C63.9184 21.5682 64.7648 21.5433 65.4052 21.3754C65.4136 21.3754 65.4172 21.3754 65.4314 21.3841C65.3947 21.5094 65.0638 22.5154 65.0638 22.5154C64.0813 25.4486 63.6269 27.4436 64.555 28.6253C65.8813 30.2932 68.077 28.5669 69.8632 26.2867C69.4798 29.0189 70.8708 29.4467 71.9312 29.2373C73.1492 28.9022 74.5065 27.5776 75.1364 26.899C74.9341 27.695 74.989 29.1202 76.0972 29.2624C76.8565 29.4053 77.425 28.9848 78.0826 28.6243C80.4416 27.3166 83.2654 22.9593 83.9986 21.6996H83.0373C81.995 23.3033 80.6687 25.4055 79.0005 26.4033V26.4033ZM57.8259 26.1115C57.6763 25.8851 57.6267 25.6377 57.6217 25.3702C57.5931 23.7267 59.3301 20.7836 60.556 19.1803H60.5586C61.0722 20.3255 62.2357 21.0617 62.938 21.3719C62.0658 23.3501 59.0741 27.5866 57.8259 26.1115V26.1115ZM63.4305 20.4876C63.3474 20.5467 61.8803 20.0434 61.5967 18.6606C61.3562 17.47 62.1616 16.5397 62.9407 16.0708C63.2752 15.8024 63.779 15.7105 64.1485 15.8441C64.4916 16.0792 64.5845 16.4986 64.5845 16.9504C64.5845 17.2275 64.5484 17.5122 64.5165 17.772L64.5096 17.8308C64.2638 18.7601 63.9011 19.653 63.4305 20.4876V20.4876ZM75.1976 25.5835C75.1964 25.5835 74.9192 25.8349 74.9192 25.8349C74.5234 26.1952 74.1162 26.5807 73.6245 26.3878C73.4887 26.3377 73.3932 26.1534 73.3703 26.0105C73.3479 24.9795 73.8039 24.0243 74.2462 23.094L74.3596 22.8509C75.6318 20.6886 77.1105 18.1406 79.2822 16.3724C79.6481 16.1036 80.0452 15.8777 80.4644 16.0539C80.5608 16.146 80.6731 16.3053 80.6731 16.4643C80.6731 16.5148 80.629 16.6488 80.6037 16.6906C79.9971 17.6885 79.4195 18.7359 78.8578 19.7417C77.76 21.7281 76.6212 23.7812 75.1976 25.5835V25.5835Z" fill="#E50C15"/>
</svg>
