<svg width="90" height="31" viewBox="0 0 90 31" fill="none" xmlns="http://www.w3.org/2000/svg">
<path d="M34.5609 26.5784C31.212 24.3823 26.6671 23.9969 19.3375 26.0671C11.5236 27.9363 8.91835 29.1346 5.49689 26.7291C4.18244 25.5475 3.71118 23.6449 4.06308 20.9043C4.87926 16.4367 7.08494 12.1374 11.0029 7.36839C13.1896 4.88757 15.2182 2.75857 17.8967 1.90365C19.9496 1.36733 19.7577 3.00972 19.5093 3.24461C19.2472 3.24461 18.8069 3.28664 18.4666 3.51271C18.1904 3.73077 17.4322 4.43486 17.3915 5.38197C17.3328 6.83185 18.8067 6.53008 19.4424 5.73402C20.1276 4.83695 21.1404 3.11909 20.3437 1.51805C20.0098 0.948175 19.4329 0.554326 18.7167 0.420219C16.2639 0.277522 13.9797 1.46777 11.8715 2.78365C7.261 6.04404 3.57291 10.5618 1.48604 15.5069C0.282963 18.4906 -0.805137 22.7647 0.825776 26.2433C2.08758 28.657 4.70691 29.9391 7.83205 29.671C10.0239 29.4366 12.6743 28.7154 14.4568 28.28C16.2395 27.8438 25.3642 24.6509 28.3623 30.2082C28.3623 30.2082 29.3593 28.238 31.8508 28.196C33.8992 28.0036 36.8544 28.7996 39.0063 30.4086C38.2893 29.311 36.2566 27.6933 34.5609 26.5784V26.5784Z" fill="white"/>
<path d="M20.2679 7.92974C18.5612 6.78988 15.1311 8.96904 12.3838 12.707C9.8714 16.0599 8.78656 19.9568 9.96725 21.7589C11.7234 23.8793 14.9837 20.795 16.3702 19.1442L16.5491 18.9512C17.4919 17.9202 18.2203 16.6797 18.9254 15.4894C18.9254 15.4894 19.5734 14.3998 19.6043 14.3494C20.0048 14.2743 20.4872 14.1569 21.0308 13.9976C21.0231 14.0225 18.9511 17.568 19.1624 19.3277C19.2283 19.8646 19.1781 21.8259 21.059 22.4208C23.5659 22.8485 25.5677 20.8703 27.3338 19.1101C27.3338 19.1101 27.6347 18.8171 27.8049 18.6498C27.7618 18.8252 27.7057 19.0594 27.7057 19.0594C26.9717 21.6577 27.9611 22.203 28.5799 22.4041C30.4502 22.9577 32.6846 20.1916 32.6919 20.1916C32.6339 21.0629 32.4646 21.7836 33.3668 22.3621C34.2183 22.6724 35.0802 22.1992 35.7354 21.755C38.0951 20.0621 39.9961 17.4122 41.5315 15.1218H40.5521C40.5405 15.1218 38.1353 18.6707 36.5735 19.442C36.571 19.442 36.2867 19.5906 36.1231 19.4731C35.9202 19.297 36.0002 18.9309 36.1254 18.6716C36.1333 18.6548 42.1559 8.02135 42.1559 8.02135H39.3123C39.3123 8.02135 39.0017 8.53293 38.9764 8.56649C38.9573 8.54977 38.9117 8.46181 38.8802 8.41967C37.1185 5.93885 33.1289 9.75479 30.1252 14.18C28.9688 15.8816 27.4966 17.7975 25.9699 19.1803C25.9699 19.1803 23.7082 21.2908 22.742 19.7745C22.3887 19.1374 22.4974 18.206 22.6966 17.5943C23.8217 14.3338 25.7605 11.3748 27.9667 9.58953C28.5894 9.09536 29.2664 8.95243 29.6022 9.16201C29.9224 9.3551 29.974 9.83244 29.7715 10.1594C29.2577 10.1427 28.846 10.3016 28.5114 10.6537C27.8522 11.3578 27.6231 12.0368 27.8327 12.6739C28.8509 14.149 30.8817 11.2322 30.7835 9.45531C30.7484 8.81821 30.4146 8.2149 29.9162 7.92126C29.1736 7.46889 28.0407 7.58605 27.3076 7.94668C26.326 8.3237 24.7725 9.63946 23.8656 10.6622C22.724 11.9447 20.7659 13.3694 20.1537 13.2099C20.3538 12.665 22.0077 9.22031 20.2679 7.92974V7.92974ZM33.9772 13.0256C34.5304 12.2463 36.1404 10.1592 36.5329 9.80724C37.853 8.62501 38.3806 9.14518 38.4263 9.51372C37.1943 11.7599 35.7402 14.3331 34.3731 16.6465C34.3759 16.6383 33.9453 17.3086 33.9453 17.3086C33.3415 18.247 32.7335 19.0517 31.7419 19.6131C31.6004 19.6554 31.3673 19.6722 31.2122 19.5544C31.0255 19.4286 30.9518 19.2191 30.9728 19.0011C31.0323 18.2805 31.753 16.0766 33.9772 13.0256V13.0256ZM18.5079 14.3749C18.5079 14.3749 18.4831 14.4506 18.4709 14.4754C18.4678 14.4754 17.231 16.5285 17.231 16.5285C16.4847 17.5429 15.5529 18.8172 14.3881 19.4287C14.0428 19.546 13.5655 19.6217 13.3222 19.3118C12.8066 18.6831 13.0724 17.8113 13.2883 17.1075L13.3648 16.856C13.9837 15.1464 14.9657 13.6374 15.9218 12.2377C15.9337 12.2294 15.9605 12.2211 15.9701 12.2211C15.9725 12.2294 15.9763 12.2294 15.9779 12.2463C16.5778 13.4194 17.7025 13.964 18.5437 14.2158C18.5488 14.2158 18.5543 14.2242 18.5543 14.241C18.5544 14.266 18.5407 14.2998 18.5079 14.3749V14.3749ZM19.6795 11.953C19.674 11.9697 19.1287 13.2436 19.1287 13.2436C19.0498 13.3106 18.9252 13.2772 18.7823 13.2436L18.5375 13.2015C17.7688 12.9586 17.189 12.4389 17.0102 11.8187C16.7637 10.6118 17.7766 9.66466 18.2227 9.3212C18.6509 9.0192 19.3166 8.86001 19.7031 9.17026C19.9415 9.45531 20.0318 9.82396 20.0318 10.2265C20.032 10.7711 19.8668 11.3829 19.6795 11.953ZM55.6277 15.8416C55.3535 15.2383 54.7027 14.8527 54.009 14.8945C51.7564 15.1042 49.5531 16.99 48.3961 19.697C47.7891 21.0884 47.4578 22.2365 47.2405 24.0636C47.9411 23.2425 49.3698 21.8932 50.9912 21.1555C50.9912 21.1555 51.2118 19.4039 52.3368 17.8449C52.7625 17.1993 53.6143 16.1601 54.5709 16.4366C55.4068 16.7216 55.1129 19.0769 54.0021 21.3562C53.1802 23.0327 51.9224 24.7095 50.6498 25.8658C49.5247 26.838 47.8601 28.0114 46.4036 27.1063C45.4863 26.5534 45.0184 25.3964 45.1172 23.9046C45.5555 19.6721 47.4482 16.068 50.1566 11.9612C52.9493 8.14767 56.0278 4.23359 60.1749 2.14627C61.0208 1.71051 61.8041 1.60996 62.4812 1.87817C62.4812 1.87817 58.5883 4.05734 56.7326 8.08892C56.2606 9.11162 55.604 10.4942 56.2652 11.718C56.6107 12.3548 57.224 12.4052 57.718 12.3717C59.9926 11.8351 61.4622 9.67279 62.6629 7.69496C63.3591 6.1947 63.9778 4.70279 63.9778 3.04322C63.9778 2.84212 63.9676 2.57402 63.9509 2.37269C65.0376 1.78621 67.2661 2.82529 67.2661 2.82529C69.0075 3.41222 72.7154 6.30395 73.9661 6.85687C74.5762 6.13617 75.5788 5.04671 76.1435 4.5018L75.3262 3.99045C74.0178 3.17745 72.6348 2.40624 71.2737 1.64363C68.1823 -0.0743488 65.6659 0.528964 64.3853 0.998398C63.882 1.18267 63.4221 1.34197 63.4221 1.34197C62.4717 0.285944 60.9129 0.386267 59.7644 0.671432C55.634 1.87829 51.7993 4.82007 47.6879 9.92452C44.6653 13.9225 42.7904 17.3758 41.791 20.7869C41.0207 23.0833 40.7866 26.461 42.6667 28.4642C44.2652 30.1653 46.3849 29.7967 47.8816 29.1852C51.1246 27.5592 54.0394 24.0555 55.4917 20.0239C55.8423 18.8256 56.2312 17.1325 55.6277 15.8416V15.8416ZM63.085 3.211C62.6557 8.22315 58.8286 11.1653 57.8816 11.3996C57.3077 11.5167 56.3285 11.2571 57.2027 9.15365C58.49 6.32044 60.6879 3.91521 63.0459 2.68305C63.1034 2.89263 63.1018 3.02639 63.085 3.211V3.211ZM85.7873 3.84776C83.7287 5.03812 81.5945 5.80898 79.0113 5.54088C78.2955 6.36247 77.5983 7.20892 76.9558 8.08045C80.5816 9.0192 84.4254 6.93223 86.5692 4.94604C88.8371 2.94279 89.9999 0.420166 89.9999 0.420166C89.9999 0.420166 88.3 2.398 85.7873 3.84776ZM46.8819 8.02158H44.1814L42.6582 10.5411H45.3581L46.8819 8.02158Z" fill="white"/>
<path d="M79.0005 26.8119C78.7101 27.013 78.3022 26.8584 78.4546 26.3975C78.8346 25.2241 80.3451 22.8329 80.3451 22.8329L84.5521 15.2369H81.6704C81.5334 15.466 81.2406 15.9919 81.2406 15.9919C81.1072 15.7658 80.7085 15.2632 80.5444 15.1545C79.8404 14.7015 78.8075 14.9157 78.0949 15.3263C74.9968 17.1704 72.7363 20.814 70.9536 23.6555C70.9536 23.6555 69.0769 26.8141 68.0353 27.0489C67.222 27.1161 67.306 26.0008 67.3412 25.741C67.6556 23.8632 68.3859 22.0781 69.1215 20.4605C70.618 19.4045 72.3256 18.0216 73.8775 16.5046C77.2456 13.2272 80.085 9.51417 80.5 8.68444C80.5 8.68444 80.0508 8.77675 79.5203 8.79335C76.9292 12.4728 71.6269 17.8204 70.0194 18.6164C70.7315 16.8727 75.3325 8.55022 79.2477 4.56913L79.8639 3.96548C80.8167 3.01836 81.8037 2.04617 82.573 1.88687C82.6542 1.87851 82.7589 1.88687 82.8492 2.07995C82.8835 2.81738 82.6138 3.36228 82.3045 3.98243L81.8709 4.88774C81.8709 4.88774 82.485 4.77035 82.8885 4.6359C83.3563 3.73952 83.8747 2.73343 83.6836 1.53516C83.6199 1.14956 83.3457 0.856266 82.9873 0.789155C81.8194 0.562855 80.5465 1.44263 79.5222 2.15531L79.4809 2.18028C74.2157 6.37942 69.7698 12.4309 65.8827 20.695C65.601 20.9126 64.5126 21.1727 64.3276 21.0469C64.7115 20.2424 65.1948 19.161 65.4365 17.9876C65.4784 17.6521 65.5173 17.3088 65.5173 16.9736C65.5173 16.2522 65.3472 15.5735 64.7125 15.1044C63.9682 14.7272 63.0483 14.9033 62.428 15.188C59.6496 16.3614 57.5729 19.2617 56.0743 21.6501C55.2684 23.1675 54.4648 24.7927 54.2422 26.6537C54.0855 28.1118 54.4046 29.0507 55.2191 29.5201C56.0565 29.9557 57.1107 29.503 57.5248 29.2853C60.3396 27.7765 62.3065 24.751 63.8567 21.985C63.9184 21.9768 64.7648 21.9518 65.4052 21.7839C65.4136 21.7839 65.4172 21.7839 65.4314 21.7926C65.3947 21.9179 65.0638 22.924 65.0638 22.924C64.0813 25.8572 63.6269 27.8522 64.555 29.0339C65.8813 30.7018 68.077 28.9755 69.8632 26.6953C69.4798 29.4275 70.8708 29.8552 71.9312 29.6459C73.1492 29.3108 74.5065 27.9862 75.1364 27.3075C74.9341 28.1036 74.989 29.5287 76.0972 29.671C76.8565 29.8139 77.425 29.3934 78.0826 29.0328C80.4416 27.7252 83.2654 23.3679 83.9986 22.1081H83.0373C81.995 23.7118 80.6687 25.814 79.0005 26.8119V26.8119ZM57.8259 26.5201C57.6763 26.2937 57.6267 26.0463 57.6217 25.7788C57.5931 24.1352 59.3301 21.1922 60.556 19.5888H60.5586C61.0722 20.7341 62.2357 21.4702 62.938 21.7805C62.0658 23.7587 59.0741 27.9951 57.8259 26.5201V26.5201ZM63.4305 20.8961C63.3474 20.9552 61.8803 20.452 61.5967 19.0691C61.3562 17.8785 62.1616 16.9483 62.9407 16.4794C63.2752 16.211 63.779 16.1191 64.1485 16.2526C64.4916 16.4878 64.5845 16.9072 64.5845 17.359C64.5845 17.6361 64.5484 17.9208 64.5165 18.1805L64.5096 18.2394C64.2638 19.1686 63.9011 20.0616 63.4305 20.8961V20.8961ZM75.1976 25.9921C75.1964 25.9921 74.9192 26.2435 74.9192 26.2435C74.5234 26.6038 74.1162 26.9893 73.6245 26.7964C73.4887 26.7463 73.3932 26.562 73.3703 26.4191C73.3479 25.3881 73.8039 24.4329 74.2462 23.5026L74.3596 23.2595C75.6318 21.0971 77.1105 18.5492 79.2822 16.7809C79.6481 16.5122 80.0452 16.2863 80.4644 16.4625C80.5608 16.5545 80.6731 16.7138 80.6731 16.8729C80.6731 16.9234 80.629 17.0574 80.6037 17.0992C79.9971 18.0971 79.4195 19.1445 78.8578 20.1502C77.76 22.1367 76.6212 24.1897 75.1976 25.9921V25.9921Z" fill="white"/>
</svg>
