<svg width="27" height="20" viewBox="0 0 27 20" fill="none" xmlns="http://www.w3.org/2000/svg">
<path d="M23.638 5.45609C23.6542 5.66701 23.6542 5.87798 23.6542 6.0889C23.6542 12.5223 18.3867 19.935 8.75919 19.935C5.79314 19.935 3.03782 19.1364 0.720093 17.7504C1.14151 17.7955 1.54667 17.8106 1.9843 17.8106C4.43165 17.8106 6.68457 17.0422 8.48364 15.7315C6.18213 15.6862 4.25339 14.2851 3.58886 12.3565C3.91304 12.4017 4.23717 12.4319 4.57757 12.4319C5.04758 12.4319 5.51765 12.3716 5.95523 12.2662C3.55648 11.8141 1.75735 9.85551 1.75735 7.49007V7.42983C2.45426 7.79143 3.26472 8.01742 4.12368 8.04752C2.71359 7.17364 1.78978 5.68208 1.78978 3.99463C1.78978 3.09065 2.04906 2.262 2.50291 1.5388C5.07996 4.49183 8.95366 6.4203 13.2973 6.63127C13.2163 6.26967 13.1677 5.89305 13.1677 5.51638C13.1677 2.83452 15.5016 0.649902 18.4028 0.649902C19.9101 0.649902 21.2715 1.23749 22.2278 2.18668C23.411 1.97576 24.5455 1.56895 25.5505 1.0115C25.1614 2.14151 24.3348 3.0907 23.2489 3.69332C24.3025 3.5879 25.3235 3.31665 26.2636 2.94002C25.5505 3.90424 24.6591 4.76299 23.638 5.45609Z" fill="#DDDDDD"/>
</svg>
