<svg width="27" height="18" viewBox="0 0 27 18" fill="none" xmlns="http://www.w3.org/2000/svg">
<path d="M25.8167 3.2968C25.523 2.25492 24.6574 1.43437 23.5584 1.15591C21.5664 0.649902 13.5787 0.649902 13.5787 0.649902C13.5787 0.649902 5.59112 0.649902 3.59908 1.15591C2.50009 1.43442 1.63453 2.25492 1.34076 3.2968C0.807007 5.18526 0.807007 9.12537 0.807007 9.12537C0.807007 9.12537 0.807007 13.0655 1.34076 14.9539C1.63453 15.9958 2.50009 16.7822 3.59908 17.0606C5.59112 17.5666 13.5787 17.5666 13.5787 17.5666C13.5787 17.5666 21.5664 17.5666 23.5584 17.0606C24.6574 16.7822 25.523 15.9958 25.8167 14.9539C26.3505 13.0655 26.3505 9.12537 26.3505 9.12537C26.3505 9.12537 26.3505 5.18526 25.8167 3.2968ZM10.9663 12.7027V5.54805L17.6424 9.12545L10.9663 12.7027Z" fill="#DDDDDD"/>
</svg>
